<!DOCTYPE svg PUBLIC "-//W3C//DTD SVG 1.1//EN" "http://www.w3.org/Graphics/SVG/1.1/DTD/svg11.dtd">
<!-- Uploaded to: SVG Repo, www.svgrepo.com, Transformed by: SVG Repo Mixer Tools -->
<svg fill="#ffffff" width="800px" height="800px" viewBox="0 0 24 24" id="mic" data-name="Flat Line" xmlns="http://www.w3.org/2000/svg" class="icon flat-line">
<g id="SVGRepo_bgCarrier" stroke-width="0"/>
<g id="SVGRepo_tracerCarrier" stroke-linecap="round" stroke-linejoin="round"/>
<g id="SVGRepo_iconCarrier">
<path id="secondary" d="M12,15h0a4,4,0,0,1-4-4V7a4,4,0,0,1,4-4h0a4,4,0,0,1,4,4v4A4,4,0,0,1,12,15Z" style="fill: #2ca9bc; stroke-width: 2;"/>
<path id="primary" d="M18.24,16A8,8,0,0,1,5.76,16" style="fill: none; stroke: #ffffff; stroke-linecap: round; stroke-linejoin: round; stroke-width: 2;"/>
<path id="primary-2" data-name="primary" d="M12,19v2m4-10V7a4,4,0,0,0-4-4h0A4,4,0,0,0,8,7v4a4,4,0,0,0,4,4h0A4,4,0,0,0,16,11Z" style="fill: none; stroke: #ffffff; stroke-linecap: round; stroke-linejoin: round; stroke-width: 2;"/>
</g>
</svg>